<mxfile host="app.diagrams.net" modified="2022-12-13T06:52:36.160Z" agent="5.0 (Macintosh; Intel Mac OS X 10_15_7) AppleWebKit/537.36 (KHTML, like Gecko) Chrome/108.0.0.0 Safari/537.36" etag="rzWgzeKP7-fGcEfsp7c8" version="20.6.2" type="github">
  <diagram id="r5DMtO9KncTiUua-PXuM" name="第 1 页">
    <mxGraphModel dx="1412" dy="698" grid="1" gridSize="10" guides="1" tooltips="1" connect="1" arrows="1" fold="1" page="1" pageScale="1" pageWidth="827" pageHeight="1169" math="0" shadow="0">
      <root>
        <mxCell id="0" />
        <mxCell id="1" parent="0" />
        <mxCell id="o4lQdXq3QfR5EF047Njo-9" style="rounded=0;orthogonalLoop=1;jettySize=auto;html=1;exitX=1;exitY=0.5;exitDx=0;exitDy=0;entryX=0;entryY=0.5;entryDx=0;entryDy=0;fontSize=16;endSize=3;startSize=3;edgeStyle=orthogonalEdgeStyle;curved=1;" parent="1" source="o4lQdXq3QfR5EF047Njo-1" target="o4lQdXq3QfR5EF047Njo-3" edge="1">
          <mxGeometry relative="1" as="geometry" />
        </mxCell>
        <mxCell id="o4lQdXq3QfR5EF047Njo-1" value="输入1" style="ellipse;whiteSpace=wrap;html=1;aspect=fixed;fontFamily=Times New Roman;" parent="1" vertex="1">
          <mxGeometry x="80" width="40" height="40" as="geometry" />
        </mxCell>
        <mxCell id="o4lQdXq3QfR5EF047Njo-10" style="edgeStyle=orthogonalEdgeStyle;rounded=0;orthogonalLoop=1;jettySize=auto;html=1;exitX=1;exitY=0.5;exitDx=0;exitDy=0;entryX=0;entryY=0.5;entryDx=0;entryDy=0;fontSize=16;dashed=1;endSize=3;startSize=3;curved=1;" parent="1" source="o4lQdXq3QfR5EF047Njo-2" target="o4lQdXq3QfR5EF047Njo-3" edge="1">
          <mxGeometry relative="1" as="geometry" />
        </mxCell>
        <mxCell id="o4lQdXq3QfR5EF047Njo-2" value="输入n" style="ellipse;whiteSpace=wrap;html=1;aspect=fixed;dashed=1;fontFamily=Times New Roman;" parent="1" vertex="1">
          <mxGeometry x="80" y="75" width="40" height="40" as="geometry" />
        </mxCell>
        <mxCell id="o4lQdXq3QfR5EF047Njo-12" style="edgeStyle=orthogonalEdgeStyle;rounded=0;orthogonalLoop=1;jettySize=auto;html=1;exitX=1;exitY=0.5;exitDx=0;exitDy=0;entryX=0;entryY=0.5;entryDx=0;entryDy=0;fontSize=16;endSize=3;startSize=3;curved=1;" parent="1" source="o4lQdXq3QfR5EF047Njo-3" target="o4lQdXq3QfR5EF047Njo-4" edge="1">
          <mxGeometry relative="1" as="geometry" />
        </mxCell>
        <mxCell id="o4lQdXq3QfR5EF047Njo-3" value="操作符" style="ellipse;whiteSpace=wrap;html=1;aspect=fixed;fontFamily=Times New Roman;" parent="1" vertex="1">
          <mxGeometry x="160" y="40" width="40" height="40" as="geometry" />
        </mxCell>
        <mxCell id="o4lQdXq3QfR5EF047Njo-15" style="edgeStyle=orthogonalEdgeStyle;rounded=0;orthogonalLoop=1;jettySize=auto;html=1;exitX=1;exitY=0.5;exitDx=0;exitDy=0;entryX=0;entryY=0.5;entryDx=0;entryDy=0;fontSize=16;endSize=3;startSize=3;curved=1;" parent="1" source="o4lQdXq3QfR5EF047Njo-4" target="o4lQdXq3QfR5EF047Njo-6" edge="1">
          <mxGeometry relative="1" as="geometry" />
        </mxCell>
        <mxCell id="o4lQdXq3QfR5EF047Njo-4" value="输出" style="ellipse;whiteSpace=wrap;html=1;aspect=fixed;fontFamily=Times New Roman;" parent="1" vertex="1">
          <mxGeometry x="240" y="40" width="40" height="40" as="geometry" />
        </mxCell>
        <mxCell id="o4lQdXq3QfR5EF047Njo-5" value="&lt;b&gt;&lt;font style=&quot;font-size: 16px;&quot;&gt;...&lt;/font&gt;&lt;/b&gt;" style="text;html=1;strokeColor=none;fillColor=none;align=center;verticalAlign=middle;whiteSpace=wrap;rounded=0;dashed=1;" parent="1" vertex="1">
          <mxGeometry y="45" width="60" height="30" as="geometry" />
        </mxCell>
        <mxCell id="o4lQdXq3QfR5EF047Njo-6" value="&lt;b&gt;&lt;font style=&quot;font-size: 16px;&quot;&gt;...&lt;/font&gt;&lt;/b&gt;" style="text;html=1;strokeColor=none;fillColor=none;align=center;verticalAlign=middle;whiteSpace=wrap;rounded=0;dashed=1;" parent="1" vertex="1">
          <mxGeometry x="320" y="45" width="60" height="30" as="geometry" />
        </mxCell>
        <mxCell id="o4lQdXq3QfR5EF047Njo-11" value="..." style="text;html=1;strokeColor=none;fillColor=none;align=center;verticalAlign=middle;whiteSpace=wrap;rounded=0;dashed=1;fontSize=16;rotation=90;" parent="1" vertex="1">
          <mxGeometry x="70" y="43" width="60" height="30" as="geometry" />
        </mxCell>
      </root>
    </mxGraphModel>
  </diagram>
</mxfile>
